<svg width="152" height="45" viewBox="0 0 152 45" fill="none" xmlns="http://www.w3.org/2000/svg">
<path d="M24.2985 17.8261V11.9256H24.2515C24.0471 12.6117 23.8896 13.3109 23.7802 14.0186C23.67 14.7303 23.6423 15.4525 23.6978 16.1706C23.6137 15.932 23.5153 15.6987 23.4031 15.472C23.1321 14.987 22.8493 14.5259 22.5546 14.0529C22.1603 13.5043 21.8614 12.8926 21.6707 12.2438C21.553 11.7964 21.5289 11.3293 21.6 10.8721C21.6501 10.5707 21.7701 10.2852 21.9502 10.0388C22.1303 9.7923 22.3655 9.59167 22.637 9.45303C23.1367 9.16787 23.704 9.02389 24.2787 9.0364C24.8534 9.0489 25.414 9.21743 25.9009 9.52406C26.6905 9.99709 26.926 10.742 26.8672 11.617C26.7964 12.5156 26.3842 13.2605 25.9128 13.9938C25.6181 14.4433 25.3356 14.8924 25.0762 15.3655C24.7543 16.0545 24.5359 16.7877 24.4282 17.5411C24.4065 17.6346 24.3907 17.7294 24.3809 17.8249L24.2985 17.8261Z" fill="#9E9E2B"/>
<path d="M23.7915 20.4986C23.7531 20.462 23.7176 20.4225 23.6853 20.3804C23.3118 20.0077 23.1 19.5019 23.0962 18.9733C23.101 18.848 23.0691 18.7241 23.0043 18.6169C22.9396 18.5097 22.845 18.4239 22.7322 18.3701C22.4374 18.2164 22.1311 18.0982 21.8248 17.9681C21.495 17.838 21.1533 17.7317 20.8232 17.5778C20.6784 17.5159 20.5505 17.4203 20.45 17.2987C20.3496 17.1772 20.2796 17.0333 20.2459 16.8791C20.2187 16.7789 20.2141 16.6738 20.2324 16.5715C20.2508 16.4692 20.2917 16.3723 20.3521 16.2879C20.4345 16.1697 20.5287 16.0751 20.623 15.9569C20.6945 15.8859 20.7366 15.7904 20.741 15.6895C20.7453 15.5887 20.7116 15.4899 20.6465 15.4129C20.5072 15.2068 20.3104 15.0464 20.0809 14.9518C19.5268 14.7383 18.973 14.5373 18.4193 14.3486C18.1207 14.2584 17.8481 14.0975 17.6246 13.8793C17.401 13.6611 17.233 13.3922 17.1348 13.0952C17.0762 12.9321 17.0733 12.7541 17.1266 12.5892C17.18 12.4243 17.2866 12.282 17.4296 12.1846C17.5679 12.0926 17.7188 12.0209 17.8774 11.9719C18.4182 11.803 18.9883 11.7506 19.5506 11.8182C20.1903 11.9274 20.764 12.2787 21.1533 12.7997C21.631 13.3771 22.0203 14.0228 22.3081 14.7154C22.86 16.0246 23.2746 17.3878 23.5452 18.7832C23.6514 19.3272 23.7338 19.871 23.8281 20.4151V20.4733C23.815 20.4869 23.8031 20.4986 23.7915 20.4986Z" fill="#9E9E2B"/>
<path d="M24.5103 20.5105C24.5456 20.2503 24.581 20.0139 24.6164 19.7892C24.8175 18.5542 25.113 17.3365 25.5003 16.147C25.829 15.034 26.3387 13.9832 27.0087 13.037C27.3159 12.6138 27.7148 12.2662 28.1754 12.0202C28.6806 11.8047 29.2368 11.739 29.778 11.831C30.1218 11.8517 30.4581 11.9401 30.7678 12.0912C30.9057 12.1466 31.0247 12.2407 31.1104 12.3624C31.1962 12.4841 31.245 12.6281 31.251 12.777C31.2499 12.9697 31.2056 13.1596 31.1214 13.3327C31 13.5806 30.8282 13.8001 30.6172 13.9773C30.4061 14.1545 30.1604 14.2853 29.8958 14.3614C29.389 14.5271 28.8942 14.6924 28.3993 14.8936C28.1745 14.998 27.9677 15.1378 27.7867 15.3075C27.739 15.3423 27.6987 15.3861 27.6679 15.4365C27.6372 15.4869 27.6166 15.5429 27.6074 15.6013C27.5982 15.6597 27.6006 15.7193 27.6144 15.7768C27.6282 15.8343 27.6531 15.8885 27.6878 15.9363C27.7094 15.9662 27.7348 15.9933 27.7632 16.0169C27.7872 16.0513 27.8148 16.083 27.8456 16.1115C27.9404 16.2017 28.0132 16.3125 28.0585 16.4355C28.1037 16.5584 28.1201 16.6902 28.1065 16.8205C28.0928 16.9509 28.0494 17.0763 27.9797 17.1871C27.9099 17.2979 27.8157 17.3912 27.7043 17.4596C27.3749 17.6852 27.0077 17.8495 26.6203 17.9445C26.3106 18.0434 26.0076 18.1619 25.7129 18.2994C25.559 18.3729 25.4307 18.4911 25.3445 18.6388C25.2584 18.7864 25.2185 18.9566 25.2299 19.1272C25.2112 19.3951 25.1376 19.6561 25.0137 19.8941C24.8899 20.1321 24.7185 20.342 24.5103 20.5105Z" fill="#9E9E2B"/>
<path d="M21.9178 34.7357C22.73 33.5768 24.0623 31.1645 23.4732 28.2084C23.4497 28.0783 23.4152 27.9482 23.3789 27.8181C23.2377 27.2033 22.672 24.0577 24.1685 21.1843C23.6137 21.1645 23.0587 21.2202 22.5188 21.35C21.1047 21.6809 19.7379 22.1185 18.5477 22.9699C17.8073 23.4683 17.2056 24.1478 16.7996 24.9444C16.3935 25.7409 16.1965 26.6282 16.2271 27.5223C16.2271 27.5934 16.239 27.6996 16.239 27.8181C16.2728 28.9341 16.5848 30.0237 17.1463 30.9875C17.8374 32.106 18.8084 33.0234 19.9627 33.6481C20.5872 34.0146 21.2237 34.3468 21.8598 34.6888C21.8761 34.7079 21.8958 34.7238 21.9178 34.7357Z" fill="#91234E"/>
<path d="M30.5668 23.9981C29.7618 23.0655 28.725 22.3636 27.5619 21.9637C26.8008 21.6724 26.0163 21.447 25.2169 21.2898C24.5335 22.4486 23.9325 24.3405 24.4273 27.1548C24.4273 27.1548 25.1107 31.6126 23.0486 34.9945C23.0225 35.0365 22.9989 35.0799 22.9778 35.1246H22.9897C22.695 35.7749 21.6229 38.7785 25.7353 40.1606C25.7353 40.1606 23.685 38.0912 25.2758 35.7263C25.6959 35.1106 26.2631 34.6102 26.9255 34.2709C27.3026 34.0697 27.6797 33.8569 28.0568 33.6441C29.2546 33.0009 30.2533 32.0396 30.9436 30.8654C31.4433 29.9398 31.7292 28.9133 31.7802 27.8618C31.897 26.464 31.4611 25.0762 30.5668 23.9981Z" fill="#4B0F2C"/>
<path d="M15.873 25.9619C15.8626 26.0087 15.8547 26.056 15.8495 26.1037C15.8376 26.1983 15.8141 26.3284 15.7915 26.494C15.7688 26.6597 15.7561 26.8605 15.7335 27.0972C15.7216 27.3335 15.7216 27.5938 15.7216 27.8657C15.7329 28.1665 15.7604 28.4664 15.8039 28.7643C15.8516 29.0932 15.9265 29.4175 16.0279 29.7339C16.1294 30.0716 16.2593 30.3999 16.4163 30.7155C16.4871 30.8811 16.593 31.0357 16.6756 31.2005C16.7226 31.2831 16.7699 31.3541 16.8169 31.4368C16.8638 31.5145 16.9149 31.5895 16.9701 31.6615L17.1351 31.8863C17.1586 31.9247 17.1862 31.9604 17.2175 31.9928L17.2999 32.0993L17.4765 32.3121C17.5359 32.3823 17.5989 32.4495 17.6651 32.5133C17.7231 32.5843 17.7947 32.6434 17.8536 32.7144L18.0422 32.9036C18.1002 32.9619 18.1718 33.0218 18.2307 33.0929C18.3015 33.1511 18.3604 33.211 18.4312 33.2701C18.5608 33.3883 18.6905 33.4949 18.8318 33.6011C18.9565 33.71 19.0897 33.8087 19.23 33.8963C19.3597 33.9909 19.4894 34.0736 19.619 34.1682C19.6544 34.1917 19.677 34.2153 19.7133 34.2392C19.7496 34.2631 19.7713 34.2747 19.8076 34.2974C19.8656 34.3329 19.9372 34.3801 19.9961 34.4156C20.1139 34.4866 20.2317 34.5693 20.3378 34.6403C20.4556 34.7113 20.5618 34.7704 20.6569 34.8295C20.7631 34.8877 20.8574 34.9477 20.9397 34.9952C21.034 35.0423 21.1048 35.0898 21.1872 35.1253C21.3403 35.2079 21.4465 35.279 21.5289 35.3145C21.6113 35.3616 21.6467 35.3855 21.6467 35.3855C21.6467 35.3855 21.5997 35.3736 21.517 35.35C21.4343 35.3264 21.305 35.2918 21.1399 35.2435C21.0575 35.2199 20.9632 35.1963 20.869 35.1608C20.7747 35.1253 20.6685 35.0898 20.5499 35.0426C20.4437 35.0071 20.3143 34.9599 20.1963 34.9125C20.0666 34.8653 19.9488 34.8059 19.8073 34.7468C19.7365 34.7113 19.6776 34.6886 19.6068 34.6522C19.5715 34.6403 19.5361 34.6167 19.5007 34.6051C19.4653 34.5815 19.4299 34.5696 19.3945 34.5469C19.2532 34.4758 19.1117 34.3932 18.9594 34.3105C18.8886 34.275 18.8181 34.2278 18.7355 34.1804C18.6647 34.1332 18.5823 34.0858 18.5115 34.0386C18.3567 33.94 18.2072 33.8331 18.0636 33.7184C17.9929 33.6602 17.9105 33.6119 17.8397 33.5528C17.7689 33.4937 17.6984 33.4227 17.6277 33.3636C17.5569 33.3045 17.4864 33.2335 17.4037 33.1744L17.1917 32.9616L16.9796 32.7488C16.9088 32.6778 16.85 32.5951 16.7792 32.5241L16.6849 32.4059C16.6495 32.3704 16.6269 32.3232 16.5906 32.2877L16.414 32.0394C16.356 31.9567 16.3078 31.8738 16.2489 31.7791C16.2019 31.6965 16.1428 31.6135 16.0958 31.5189C16.0488 31.4243 16.0015 31.3416 15.9545 31.247C15.931 31.1999 15.9075 31.1643 15.8837 31.1169L15.8257 30.9751C15.7903 30.8805 15.7433 30.7979 15.7079 30.7033C15.671 30.6106 15.6395 30.5158 15.6137 30.4194C15.5805 30.3266 15.553 30.2318 15.5313 30.1356C15.5078 30.041 15.4843 29.9464 15.4605 29.8637C15.3821 29.5092 15.3309 29.1491 15.3073 28.7867C15.2969 28.4633 15.3047 28.1396 15.3308 27.8171C15.3602 27.5501 15.4074 27.2853 15.4721 27.0247C15.5194 26.8243 15.5784 26.6269 15.6488 26.4335C15.7068 26.2679 15.7665 26.1497 15.8019 26.067L15.873 25.9619Z" fill="#91234E"/>
<path d="M29.7772 24.0107C33.9485 29.6513 27.8212 32.9386 27.8212 32.9386C31.2502 29.3669 29.7772 24.0107 29.7772 24.0107Z" fill="#91234E"/>
<path d="M24.0374 5.37477C19.7679 5.37588 15.6612 7.01928 12.5624 9.96676C9.46372 12.9142 7.60874 16.9416 7.37924 21.2199C7.14975 25.4983 8.56321 29.7021 11.3287 32.9664C14.0943 36.2306 18.0015 38.3069 22.2462 38.768C22.1638 38.6262 22.0931 38.4841 22.0223 38.3424C21.7188 37.6315 21.6209 36.8493 21.7397 36.0852C21.6523 36.0754 21.5657 36.0596 21.4804 36.0381H21.4334V36.0261C17.9621 35.371 14.8624 33.4315 12.7484 30.5918C10.6344 27.752 9.66021 24.2192 10.0187 20.6929C10.3772 17.1665 12.0423 13.9039 14.6842 11.5511C17.3261 9.19825 20.7521 7.92684 24.2838 7.98864C27.8155 8.05043 31.1953 9.44092 33.7538 11.8847C36.3124 14.3285 37.8631 17.6474 38.0989 21.1842C38.3347 24.7209 37.2383 28.2175 35.027 30.9816C32.8156 33.7456 29.6505 35.5755 26.1585 36.1088C26.1231 36.156 26.0877 36.2153 26.0523 36.2625C25.7954 36.6218 25.6447 37.0465 25.6176 37.4879C25.5905 37.9292 25.6881 38.3693 25.8992 38.7575C30.1408 38.2858 34.041 36.2009 36.7976 32.9317C39.5543 29.6624 40.9577 25.4574 40.7192 21.1815C40.4808 16.9057 38.6186 12.8841 35.5156 9.94389C32.4127 7.00373 28.305 5.36859 24.0374 5.37477Z" fill="#4B0F2C"/>
<path d="M45.6731 32.3117V12.9492H52.6639C55.1901 12.9492 57.0649 13.3843 58.2882 14.2545C59.5116 15.1247 60.1232 16.3811 60.123 18.0239C60.1441 18.9169 59.8877 19.7944 59.3894 20.5346C58.9001 21.2444 58.0282 21.8626 56.7737 22.3891C57.4716 22.5465 58.1359 22.8276 58.7352 23.2193C59.1911 23.5246 59.5813 23.9186 59.8828 24.3779C60.1421 24.7836 60.3275 25.2324 60.4302 25.7032C60.5265 26.1498 60.5757 26.6054 60.5769 27.0624C60.5769 28.8477 59.972 30.169 58.7622 31.0262C57.5524 31.8834 55.6265 32.3118 52.9845 32.3117H45.6731ZM49.5561 20.9563H53.2789C53.6679 20.9577 54.0555 20.9105 54.4328 20.8158C54.7844 20.7296 55.1182 20.5823 55.4191 20.3806C55.7055 20.1873 55.9413 19.9277 56.1066 19.6237C56.2823 19.2875 56.3696 18.9119 56.3601 18.5324C56.38 18.16 56.3039 17.7887 56.1391 17.4544C55.9742 17.1202 55.7262 16.8343 55.4191 16.6243C54.7016 16.1659 53.8613 15.9392 53.0114 15.9748H49.5561V20.9563ZM49.5561 29.2851H53.066C54.2402 29.2851 55.1276 29.0487 55.728 28.5758C56.2072 28.1775 56.5203 27.6136 56.6056 26.9952C56.6908 26.3767 56.5421 25.7487 56.1887 25.2349C55.8805 24.8358 55.4666 24.5318 54.9944 24.3575C54.446 24.1534 53.8646 24.0536 53.2798 24.0632H49.5561V29.2851Z" fill="#5E193B"/>
<path d="M66.8353 26.2857C66.8124 26.9165 66.9261 27.5447 67.1686 28.1272C67.3765 28.6211 67.7276 29.0409 68.1764 29.332C68.6564 29.6244 69.2105 29.771 69.7718 29.7541C70.3839 29.7677 70.989 29.6199 71.5264 29.3256C71.7846 29.1719 72.01 28.9686 72.1897 28.7274C72.3694 28.4861 72.4999 28.2116 72.5736 27.9196H76.0835C75.9532 28.8567 75.5466 29.7332 74.916 30.4367C74.2877 31.134 73.5097 31.6789 72.6409 32.0304C71.6188 32.4406 70.5205 32.6249 69.4209 32.5706C68.3214 32.5163 67.2465 32.2247 66.2694 31.7158C65.2446 31.1513 64.4036 30.3023 63.8473 29.2706C63.2468 28.1242 62.9483 26.8428 62.9802 25.5481C62.9604 24.2571 63.2294 22.9782 63.7675 21.8055C64.2648 20.7257 65.0586 19.8106 66.0559 19.1676C67.1389 18.4975 68.3936 18.16 69.6653 18.1968C70.9061 18.1542 72.1337 18.4627 73.208 19.0872C74.1601 19.6764 74.9134 20.5396 75.3697 21.5644C75.8739 22.7179 76.1221 23.9676 76.0969 25.227V26.2845L66.8353 26.2857ZM66.822 23.9569H72.4512C72.4571 23.432 72.3526 22.9118 72.1446 22.4301C71.9512 21.9795 71.6279 21.5971 71.2164 21.3321C70.7481 21.0498 70.208 20.9103 69.6621 20.9307C69.1161 20.9137 68.5781 21.0655 68.1209 21.3656C67.7036 21.6494 67.3696 22.0401 67.1535 22.4971C66.9341 22.9518 66.8207 23.4508 66.822 23.9561V23.9569Z" fill="#5E193B"/>
<path d="M82.0068 26.2857C81.9838 26.9165 82.0975 27.5448 82.3401 28.1271C82.5479 28.6212 82.899 29.041 83.3479 29.332C83.8278 29.6245 84.382 29.7711 84.9433 29.7541C85.5554 29.7676 86.1605 29.6199 86.698 29.3256C86.9561 29.1719 87.1815 28.9686 87.3612 28.7273C87.5409 28.486 87.6713 28.2116 87.7451 27.9196H91.2551C91.1244 28.8567 90.7178 29.7332 90.0872 30.4367C89.459 31.134 88.6812 31.679 87.8124 32.0304C86.7903 32.4406 85.692 32.6249 84.5925 32.5706C83.4929 32.5163 82.418 32.2247 81.4409 31.7158C80.4159 31.1515 79.5749 30.3025 79.0188 29.2706C78.4183 28.1242 78.1198 26.8428 78.1517 25.5481C78.1319 24.2571 78.4009 22.9782 78.939 21.8054C79.4362 20.7257 80.2299 19.8106 81.2271 19.1676C82.3102 18.4975 83.565 18.1601 84.8368 18.1967C86.0776 18.1542 87.3052 18.4628 88.3795 19.0872C89.3316 19.6764 90.0849 20.5396 90.5412 21.5644C91.0455 22.7179 91.2936 23.9676 91.2684 25.227V26.2845L82.0068 26.2857ZM81.9935 23.9569H87.6242C87.6299 23.432 87.5254 22.9118 87.3173 22.4301C87.1239 21.9794 86.8006 21.597 86.389 21.3321C85.9208 21.0498 85.3807 20.9103 84.8348 20.9307C84.2887 20.9137 83.7506 21.0655 83.2933 21.3656C82.8762 21.6496 82.5422 22.0402 82.3259 22.4971C82.1067 22.9519 81.9934 23.4508 81.9947 23.9561L81.9935 23.9569Z" fill="#5E193B"/>
<path d="M101.955 21.1842H98.8864L98.9131 28.5622C98.898 28.8209 98.9414 29.0796 99.0401 29.3191C99.0793 29.3988 99.1354 29.469 99.2045 29.5246C99.2736 29.5802 99.3541 29.6198 99.4401 29.6407C99.6696 29.6952 99.905 29.7199 100.141 29.7144H101.995V32.1247C101.726 32.2305 101.447 32.3067 101.161 32.352C100.639 32.4341 100.109 32.4699 99.5803 32.4591C98.3703 32.4591 97.434 32.303 96.7714 31.9907C96.1679 31.7355 95.6772 31.2691 95.3904 30.6782C95.1214 30.0626 94.9894 29.3955 95.0034 28.7235V21.1842H92.7617V18.4656H95.1369L96.1109 14.2878H98.8864V18.4522H101.955V21.1842Z" fill="#5E193B"/>
<path d="M105.317 12.9492H118.447L118.434 16.2162H109.241V21.0775H117.207V24.278H109.241V32.3122H105.317V12.9492Z" fill="#B1AC3C"/>
<path d="M125.158 12.9624V16.4846H121.37V12.9624H125.158ZM125.118 18.4658V32.3117H121.396V18.4658H125.118Z" fill="#B1AC3C"/>
<path d="M127.494 16.4304V12.9492H142.933V16.4304H137.235V32.3117H133.326V16.4304H127.494Z" fill="#B1AC3C"/>
</svg>
