<svg width="72" height="92" viewBox="0 0 72 92" fill="none" xmlns="http://www.w3.org/2000/svg">
<path fill-rule="evenodd" clip-rule="evenodd" d="M9.00035 43.6043H7.76087C7.02671 43.6043 6.88167 44.057 6.85312 44.1181L4.55869 52.4223L2.1476 44.1398C2.1476 44.1398 2.0311 43.6043 1.24001 43.6043H0.000366211V58.0276H2.00256V50.5896L3.22245 54.3597C3.33895 54.6688 3.56963 55.5351 4.79168 55.5351H5.42894L6.99816 50.5896V58.0276H9.00035V43.6043Z" fill="#454545"/>
<path fill-rule="evenodd" clip-rule="evenodd" d="M16.504 43.4648C15.0256 43.4648 13.8445 44.2876 13.8445 45.2955V56.3425C13.8738 57.3308 15.0573 58.1536 16.504 58.1536H18.1308C19.546 58.1123 20.6619 57.3308 20.6934 56.3425V45.2955C20.6934 44.3073 19.546 43.5039 18.1308 43.4648H16.504ZM17.0957 56.8563C16.4748 56.8366 15.973 56.4862 15.973 56.0552V45.5632C15.973 45.13 16.4748 44.7818 17.0957 44.76H17.4219C18.043 44.76 18.5448 45.1105 18.5448 45.5632V56.0552C18.5448 56.5081 18.043 56.8563 17.4219 56.8563H17.0957Z" fill="#454545"/>
<path fill-rule="evenodd" clip-rule="evenodd" d="M33.4565 43.602H31.3281V51.8998L29.1073 44.4053C28.988 43.9916 28.7765 43.602 27.5931 43.602H26.6189V58.0166H28.7473V49.9648L31.0581 57.0892C31.1481 57.3787 31.3281 58.0166 32.4823 58.0166H33.4565V43.602Z" fill="#454545"/>
<path fill-rule="evenodd" clip-rule="evenodd" d="M39.4799 43.6086V58.0056H43.5591C44.9788 58.0056 46.1038 57.2176 46.133 56.2228V45.4262C46.1038 44.4139 44.9788 43.6086 43.5591 43.6086H39.4799ZM44.0832 55.8095C44.0832 56.3666 43.5591 56.5733 42.9763 56.5733H41.6083V45.0974H42.9763C43.5591 45.0974 44.0832 45.3043 44.0832 45.8397V55.8095Z" fill="#454545"/>
<path fill-rule="evenodd" clip-rule="evenodd" d="M59.7398 58.0166H57.4222L55.5751 48.0905L53.7278 58.0166H51.4104L54.5198 43.602H55.6627C56.5426 43.602 56.6888 43.9916 56.7789 44.3836L59.7398 58.0166Z" fill="#454545"/>
<path fill-rule="evenodd" clip-rule="evenodd" d="M71.9393 43.602H70.3801C70.3193 43.602 69.7905 43.6216 69.7029 44.0961L68.3438 49.5532L66.9849 44.0961C66.8969 43.6216 66.3661 43.602 66.3075 43.602H64.7483L67.2796 52.0239V57.5835C67.3087 57.8316 67.5743 58.0166 67.9005 58.0166H69.408V52.0239L71.9393 43.602Z" fill="#454545"/>
<path fill-rule="evenodd" clip-rule="evenodd" d="M0.000366211 29.2933L9.00035 26.4627V40.7625H0.000366211V29.2933Z" fill="#FEBF0F"/>
<path fill-rule="evenodd" clip-rule="evenodd" d="M71.9999 29.2265L62.9999 26.4002V40.7625H71.9999V29.2265Z" fill="#454545"/>
<path fill-rule="evenodd" clip-rule="evenodd" d="M27.0002 22.9069L36.0001 20.1388V40.7622H27.0002V22.9069Z" fill="#454545"/>
<path fill-rule="evenodd" clip-rule="evenodd" d="M54.0001 22.9573L45.0001 20.192V40.7622H54.0001V22.9573Z" fill="#454545"/>
<path fill-rule="evenodd" clip-rule="evenodd" d="M9.00024 22.8019L18.0002 20.0334V40.7622H9.00024V22.8019Z" fill="#454545"/>
<path fill-rule="evenodd" clip-rule="evenodd" d="M18.0004 22.8166L27.0004 20.0483V40.7622H18.0004V22.8166Z" fill="#FEBF0F"/>
<path fill-rule="evenodd" clip-rule="evenodd" d="M63.0001 22.2385L54.0002 19.4559V40.7622H63.0001V22.2385Z" fill="#FEBF0F"/>
<path fill-rule="evenodd" clip-rule="evenodd" d="M36 2.81393L45 0.000152588V40.7625H36V2.81393Z" fill="#FEBF0F"/>
<path fill-rule="evenodd" clip-rule="evenodd" d="M0 71.0412L9.0003 75.1794V68.2659H0.000308599L0 71.0412Z" fill="#454545"/>
<path fill-rule="evenodd" clip-rule="evenodd" d="M71.9999 72.4059L62.9999 76.4861V68.266H71.9999V72.4059Z" fill="#FEBF0F"/>
<path fill-rule="evenodd" clip-rule="evenodd" d="M27.0002 83.4633L36.0001 87.6016V68.2661H27.0002V83.4633Z" fill="#FEBF0F"/>
<path fill-rule="evenodd" clip-rule="evenodd" d="M54.0001 80.6667L45.0001 84.8474V68.2658H54.0001V80.6667Z" fill="#FEBF0F"/>
<path fill-rule="evenodd" clip-rule="evenodd" d="M9.00024 75.1796L18.0002 79.325V68.266H9.00024V75.1796Z" fill="#FEBF0F"/>
<path fill-rule="evenodd" clip-rule="evenodd" d="M18.0004 79.3251L27.0004 83.4634V68.2662H18.0004V79.3251Z" fill="#454545"/>
<path fill-rule="evenodd" clip-rule="evenodd" d="M36 87.6016L45 91.7542V68.266H36V87.6016Z" fill="#454545"/>
<path fill-rule="evenodd" clip-rule="evenodd" d="M63.0001 76.4863L54.0002 80.667V68.2661H63.0001V76.4863Z" fill="#454545"/>
<path fill-rule="evenodd" clip-rule="evenodd" d="M0.000366211 65.3263C0.000366211 65.3671 0.0137903 65.3987 0.0407927 65.4235C0.0701097 65.4506 0.0994266 65.4619 0.135378 65.4619H0.54705C0.585471 65.4619 0.619108 65.4483 0.643796 65.4212C0.668638 65.394 0.682062 65.3624 0.682062 65.3263V63.6879H2.54292C2.57439 63.6879 2.6014 63.6744 2.62377 63.6473C2.64861 63.6224 2.65988 63.5929 2.65988 63.566V63.1365C2.65988 63.1026 2.64861 63.0756 2.62377 63.0485C2.6014 63.0257 2.57439 63.0122 2.54292 63.0122H0.682062V61.9953H2.72514C2.76341 61.9953 2.79705 61.9841 2.82405 61.9592C2.85337 61.9321 2.86679 61.9005 2.86679 61.862V61.4552C2.86679 61.4168 2.85337 61.3852 2.82405 61.3604C2.79705 61.3331 2.76341 61.3219 2.72514 61.3219H0.135378C0.0947976 61.3219 0.0633205 61.3354 0.0386325 61.3627C0.0116301 61.3898 0.000366211 61.4214 0.000366211 61.4552V65.3263Z" fill="#454545"/>
<path fill-rule="evenodd" clip-rule="evenodd" d="M10.8745 65.4529C10.8633 65.4846 10.8633 65.5118 10.879 65.5343C10.8947 65.5546 10.9196 65.5659 10.9511 65.5659H11.4033C11.5248 65.5659 11.5923 65.5275 11.6036 65.4506L11.815 64.8563H13.9571L14.1708 65.4506C14.1821 65.4914 14.2023 65.5207 14.2315 65.539C14.2608 65.5569 14.3125 65.5659 14.389 65.5659H14.8346C14.8908 65.5659 14.9178 65.5411 14.9178 65.4869C14.9178 65.4711 14.9155 65.4598 14.911 65.4506L13.516 61.6204C13.4688 61.4915 13.3765 61.4261 13.2415 61.4261H12.5351C12.4112 61.4261 12.3257 61.4848 12.274 61.6045L10.8745 65.4529ZM12.0512 64.2056L12.823 62.0632C12.8321 62.0316 12.8545 62.0181 12.8883 62.0181C12.9221 62.0181 12.9446 62.0361 12.958 62.07L13.7297 64.2056H12.0512Z" fill="#454545"/>
<path fill-rule="evenodd" clip-rule="evenodd" d="M24.6805 65.5139C24.9348 65.5139 25.1846 65.4665 25.4253 65.3761C25.6661 65.2811 25.8865 65.1457 26.0868 64.9672C26.1183 64.9129 26.134 64.87 26.134 64.8316C26.134 64.7976 26.1183 64.7569 26.0868 64.7163L25.8978 64.5535C25.8461 64.4993 25.7988 64.4722 25.7583 64.4722C25.7133 64.4722 25.675 64.4837 25.6435 64.5061C25.6097 64.5264 25.585 64.5422 25.5693 64.549L25.4343 64.6304C25.2138 64.7705 24.9618 64.8406 24.6805 64.8406C24.4128 64.8406 24.1675 64.775 23.9404 64.644C23.7154 64.5153 23.5375 64.3389 23.4071 64.1153C23.2743 63.8913 23.209 63.6474 23.209 63.383C23.209 63.1186 23.2743 62.8767 23.4071 62.6554C23.5375 62.4315 23.7154 62.2576 23.9404 62.1267C24.1675 61.9954 24.4128 61.9298 24.6805 61.9298C24.8719 61.9298 25.0473 61.9638 25.2047 62.0293L25.3105 62.0699C25.369 62.0927 25.4275 62.1039 25.486 62.1039C25.5648 62.1039 25.6346 62.0836 25.6975 62.0406C25.7606 61.9954 25.8055 61.9571 25.8347 61.9208C25.8842 61.8643 25.9091 61.8102 25.9091 61.7536C25.9091 61.7152 25.9 61.6814 25.8776 61.6543C25.8551 61.6248 25.8325 61.6044 25.8032 61.5887C25.6435 61.4824 25.4658 61.3987 25.2746 61.3423C25.0811 61.2836 24.883 61.2565 24.6805 61.2565C24.3003 61.2565 23.9472 61.3515 23.623 61.5435C23.3014 61.7355 23.0425 61.9932 22.8536 62.3187C22.6623 62.644 22.5679 62.9988 22.5679 63.3854C22.5679 63.7717 22.6623 64.1264 22.8536 64.4517C23.0425 64.7773 23.3014 65.0372 23.623 65.2292C23.9472 65.4191 24.3003 65.5139 24.6805 65.5139Z" fill="#454545"/>
<path fill-rule="evenodd" clip-rule="evenodd" d="M35.5766 65.48H35.9883C36.0244 65.48 36.0558 65.471 36.0829 65.4462C36.1099 65.4236 36.1233 65.3941 36.1233 65.358V62.0157H37.237C37.2685 62.0157 37.2956 62.0044 37.3182 61.9841C37.3429 61.9616 37.3541 61.9343 37.3541 61.9027V61.4508C37.3541 61.4192 37.3429 61.3921 37.3182 61.3716C37.2956 61.3513 37.2685 61.34 37.237 61.34H34.3706C34.3436 61.34 34.3189 61.3536 34.2964 61.3763C34.2738 61.4011 34.2649 61.4282 34.2649 61.4576V61.9027C34.2649 61.9343 34.2738 61.9616 34.2964 61.9841C34.3189 62.0044 34.3436 62.0157 34.3706 62.0157H35.4528V65.358C35.4528 65.3896 35.4664 65.4189 35.4911 65.444C35.5181 65.4688 35.5451 65.48 35.5766 65.48Z" fill="#454545"/>
<path fill-rule="evenodd" clip-rule="evenodd" d="M47.2703 65.4846C47.6506 65.4846 48.0038 65.3919 48.3278 65.1999C48.6519 65.0101 48.9083 64.7524 49.0973 64.4292C49.2885 64.1061 49.3829 63.7514 49.3829 63.3672C49.3829 62.9877 49.2885 62.635 49.0973 62.3118C48.9083 61.9887 48.6519 61.731 48.3278 61.5413C48.0038 61.3515 47.6506 61.2566 47.2703 61.2566C46.8856 61.2566 46.5324 61.3515 46.2084 61.5413C45.8843 61.731 45.6277 61.9887 45.4366 62.3118C45.2477 62.635 45.153 62.9877 45.153 63.3672C45.153 63.7514 45.2477 64.1061 45.4366 64.4292C45.6277 64.7524 45.8843 65.0101 46.2084 65.1999C46.5324 65.3919 46.8856 65.4846 47.2703 65.4846ZM47.2591 64.8113C46.9959 64.8113 46.755 64.7457 46.5324 64.6168C46.3094 64.488 46.1341 64.3119 46.0059 64.0903C45.8754 63.8689 45.8124 63.6293 45.8124 63.3717C45.8124 63.1073 45.8754 62.8677 46.0059 62.6486C46.1341 62.4293 46.3094 62.2531 46.5324 62.1243C46.755 61.9954 46.9959 61.93 47.2591 61.93C47.5224 61.93 47.7629 61.9954 47.9836 62.1243C48.2018 62.2531 48.3774 62.4293 48.5079 62.6486C48.6361 62.8677 48.7012 63.1073 48.7012 63.3717C48.7012 63.6293 48.6361 63.8689 48.5079 64.0903C48.3774 64.3119 48.2018 64.488 47.9836 64.6168C47.7629 64.7457 47.5224 64.8113 47.2591 64.8113Z" fill="#454545"/>
<path fill-rule="evenodd" clip-rule="evenodd" d="M57.1642 65.3646C57.1642 65.3939 57.1753 65.4233 57.2001 65.446C57.2227 65.4709 57.2518 65.4797 57.2833 65.4797H57.7536C57.7874 65.4797 57.8189 65.4709 57.8414 65.4504C57.8639 65.4301 57.8774 65.4053 57.8774 65.3759V64.4811C58.0192 64.4946 58.1497 64.4991 58.2711 64.4991C58.5344 64.4991 58.7638 64.4766 58.9664 64.4267C59.0834 64.4427 59.1935 64.515 59.2949 64.6483C59.3961 64.7816 59.4568 65.0144 59.4771 65.3466C59.4818 65.3939 59.495 65.4278 59.522 65.4504C59.5469 65.4709 59.5717 65.4797 59.5986 65.4797H59.6483H60.0485C60.08 65.4797 60.1095 65.4709 60.1365 65.4526C60.1656 65.4323 60.179 65.4098 60.179 65.3826C60.179 65.2177 60.1499 65.0075 60.0891 64.759C60.0306 64.5082 59.8866 64.3002 59.6549 64.133C59.8371 64.0087 59.9768 63.8663 60.0689 63.7104C60.1611 63.5543 60.2196 63.4212 60.2445 63.3081C60.2715 63.1951 60.2849 63.1184 60.2849 63.0755C60.2871 63.0392 60.2894 62.9896 60.2894 62.9262C60.2894 62.3296 60.0891 61.9161 59.6885 61.6857C59.2881 61.4551 58.8089 61.3398 58.2486 61.3398C58.0326 61.3398 57.8595 61.3489 57.7334 61.3669C57.605 61.385 57.4544 61.4076 57.2767 61.4348C57.2025 61.4506 57.1642 61.4913 57.1642 61.5591V65.3646ZM57.7874 63.7894V61.9885C57.9247 61.9501 58.0957 61.9319 58.3003 61.9319C58.6492 61.9319 58.9507 61.9996 59.2071 62.1352C59.4614 62.2685 59.5896 62.5128 59.5896 62.8628C59.5896 62.9196 59.5873 62.96 59.583 62.9873C59.583 63.0528 59.5603 63.1477 59.5154 63.2675C59.4703 63.3894 59.3534 63.5116 59.1621 63.638C58.9709 63.7623 58.683 63.8255 58.2958 63.8255C58.1451 63.8255 57.9764 63.8144 57.7874 63.7894Z" fill="#454545"/>
<path fill-rule="evenodd" clip-rule="evenodd" d="M71.892 61.5097C71.8605 61.4486 71.8065 61.4194 71.7278 61.4194H71.4083C71.2441 61.4194 71.1315 61.4736 71.073 61.5798C71.073 61.5842 71.0708 61.5866 71.0685 61.5866L70.198 63.0735L69.3024 61.5866L69.2956 61.5798C69.2371 61.4736 69.1245 61.4194 68.9603 61.4194H68.6431C68.6071 61.4194 68.5757 61.4285 68.5463 61.4442C68.517 61.4601 68.4923 61.4804 68.4789 61.5097C68.4698 61.5323 68.4677 61.5505 68.4677 61.5618C68.4677 61.5866 68.4721 61.6069 68.4832 61.6273L69.8266 63.8487V65.4126C69.8266 65.453 69.84 65.487 69.8693 65.5164C69.8986 65.5458 69.9346 65.5593 69.9795 65.5593H70.3913C70.434 65.5593 70.47 65.548 70.4993 65.5186C70.5286 65.4914 70.5444 65.4577 70.5444 65.4126V63.8487L71.8852 61.6273C71.8965 61.6069 71.9033 61.5866 71.9033 61.5618V61.5436L71.892 61.5097Z" fill="#454545"/>
<path fill-rule="evenodd" clip-rule="evenodd" d="M0.000366211 56.675H72V58.458H0.000366211V56.675Z" fill="#454545"/>
</svg>
