<svg width="120" height="44" viewBox="0 0 120 44" fill="none" xmlns="http://www.w3.org/2000/svg">
<path fill-rule="evenodd" clip-rule="evenodd" d="M64.7231 0.00012207C63.7831 5.31902 67.3531 9.64605 72.6803 9.64605L73.0873 7.34329C73.803 3.28854 74.3841 0.00012207 74.3841 0.00012207H64.7231Z" fill="#004CA2"/>
<path fill-rule="evenodd" clip-rule="evenodd" d="M46.7046 13.9587L46.2968 16.2627C45.581 20.3175 45 23.6051 45 23.6051H54.6618C55.6009 18.2862 52.0318 13.9587 46.7046 13.9587Z" fill="#004CA2"/>
<path fill-rule="evenodd" clip-rule="evenodd" d="M63.9135 8.94952C61.8939 6.54703 61.0112 3.31283 61.448 0H56.5236C52.4613 0 48.5884 3.28841 47.8718 7.34317L47.2729 10.7371C50.5607 10.8803 53.456 12.2578 55.4705 14.6549C57.4897 17.0574 58.3729 20.292 57.9369 23.6052H62.8608C66.9227 23.6052 70.7956 20.3177 71.5118 16.2629L72.1115 12.8673C68.8233 12.725 65.9285 11.3479 63.9135 8.94952Z" fill="#00C64E"/>
<path fill-rule="evenodd" clip-rule="evenodd" d="M7.22864 34.7458C9.19017 34.7458 11.1202 35.4815 11.1384 35.4893L11.8633 35.7678L12.3702 32.892L12.039 32.7442C11.9615 32.7115 10.1401 31.9175 7.72845 31.9175C2.57325 31.9175 1.15297 33.8313 0.867835 35.4355C0.583116 37.0498 1.27233 39.0281 6.16933 39.2809C7.71643 39.3554 8.2983 39.5698 8.51464 39.7382C8.63234 39.8292 8.62902 39.8693 8.58758 40.1031C8.55318 40.2968 7.78647 40.8579 5.74288 40.8579C3.5708 40.8579 1.26321 39.9989 1.23958 39.9902L0.519291 39.7191L0 42.6558L0.33694 42.8002C0.4219 42.8362 2.44021 43.6862 5.24306 43.6862C10.843 43.6862 11.7618 40.9444 11.911 40.1031C12.5301 36.6 8.21914 36.3918 6.80052 36.3235C5.77727 36.2755 4.07683 36.0939 4.19163 35.4355C4.28239 34.9274 5.81913 34.7458 7.22864 34.7458Z" fill="#004CA2"/>
<path fill-rule="evenodd" clip-rule="evenodd" d="M23.862 32.2336C23.1566 32.04 22.3273 31.9175 20.7491 31.9175C19.1395 31.9175 18.1863 32.0503 17.7266 32.2336C14.9076 33.5023 13.9872 37.1888 13.6933 38.8551C13.3904 40.5649 13.2594 42.4489 13.2549 42.528L13.1848 43.5554H16.1862L17.0151 38.8597C17.093 38.5485 17.202 38.1401 17.202 38.1401C17.6657 36.6078 18.2965 35.3433 18.8887 34.7458H21.8292C22.2689 35.2928 22.5611 36.3695 22.576 37.1913L17.7536 38.544L17.6554 39.3182L22.1392 39.403L21.4052 43.5554H24.4062L24.7004 42.528C24.7228 42.4489 25.2566 40.5649 25.5583 38.8551C25.8538 37.1888 25.7626 32.8084 23.862 32.2336Z" fill="#004CA2"/>
<path fill-rule="evenodd" clip-rule="evenodd" d="M52.077 32.2336C51.3716 32.04 50.5419 31.9175 48.9637 31.9175C47.354 31.9175 46.4012 32.0503 45.9416 32.2336C43.1209 33.5023 42.2021 37.1888 41.9083 38.8551C41.6053 40.5649 41.474 42.4489 41.4682 42.528L41.3977 43.5554H44.4011L45.2288 38.8597C45.3079 38.5485 45.4169 38.1401 45.4169 38.1401C45.879 36.6078 46.5115 35.3433 47.1037 34.7458H50.0437C50.4822 35.2928 50.776 36.3695 50.791 37.1913L45.9685 38.544L45.8687 39.3182L50.3541 39.403L49.6202 43.5554H52.6211L52.9149 42.528C52.9377 42.4489 53.4699 40.5649 53.7728 38.8551C54.0683 37.1888 53.9772 32.8084 52.077 32.2336Z" fill="#004CA2"/>
<path fill-rule="evenodd" clip-rule="evenodd" d="M37.4454 33.2479C37.4305 33.3505 37.0915 35.82 36.7413 37.8021L36.5917 38.645C36.1192 37.9928 35.6376 37.315 35.2928 36.7982C34.3305 35.3553 32.1899 32.4525 32.1692 32.4244L31.8936 32.0499H29.099L28.8263 33.1092C28.8201 33.1349 28.1583 35.7261 27.7911 37.8021C27.4239 39.8768 27.1723 42.4713 27.169 42.4953L27.0679 43.5554H30.2479L30.4103 42.3583C30.4257 42.2541 30.7642 39.7845 31.1149 37.8021L31.2636 36.9592C31.7353 37.6101 32.2169 38.2879 32.5633 38.8076C33.5252 40.2476 35.6642 43.152 35.6865 43.1801L35.9626 43.5554H38.7563L39.0277 42.497C39.0352 42.4713 39.6979 39.8768 40.0643 37.8021C40.4314 35.7261 40.6834 33.1349 40.6863 33.1092L40.7879 32.0499H37.6079L37.4454 33.2479Z" fill="#004CA2"/>
<path fill-rule="evenodd" clip-rule="evenodd" d="M59.9586 43.6493C57.1064 43.6493 55.4702 42.9152 55.4031 42.8837L55.0852 42.7381L55.4089 40.9058L56.0533 41.1653C56.0699 41.1727 57.8213 41.8637 60.2736 41.8637C62.7287 41.8637 63.9608 41.104 64.0922 40.3534C64.1921 39.7873 64.3425 38.9353 61.0117 38.7686C56.3816 38.5174 55.7251 36.6789 55.9908 35.181C56.2506 33.7095 57.5826 31.9563 62.4527 31.9563C64.8825 31.9563 66.3206 32.6233 66.3803 32.6523L66.6936 32.7992L66.3816 34.5628L65.7346 34.2934C65.7222 34.2889 64.3707 33.7422 62.1365 33.7422C58.37 33.7422 58.1773 34.8251 58.1152 35.181C58.0435 35.5844 57.8541 36.6599 61.3983 36.837C63.7134 36.9545 66.7309 37.4465 66.2179 40.3534C66.0819 41.1264 65.2273 43.6493 59.9586 43.6493Z" fill="#00C64E"/>
<path fill-rule="evenodd" clip-rule="evenodd" d="M75.1528 31.9563C72.5899 31.9563 70.3947 32.1011 70.3719 32.1028L69.9114 32.1338L69.7829 32.6535C69.7515 32.7727 69.0432 35.6175 68.6565 37.8036C68.2703 39.9884 67.9752 42.8316 67.9627 42.952L67.9064 43.5032H69.9036L71.4983 33.7418H74.8366C76.261 33.7418 77.9068 34.0431 77.6544 35.4711C77.2068 38.0002 71.5385 38.3829 71.5385 38.3829L71.4324 39.0607H73.8971C78.4642 39.0607 79.543 36.8113 79.78 35.4711C80.0113 34.1589 79.7191 31.9563 75.1528 31.9563Z" fill="#00C64E"/>
<path fill-rule="evenodd" clip-rule="evenodd" d="M87.8216 33.7421C84.2371 33.7421 83.6225 35.5814 83.2288 37.8034C82.8367 40.0243 82.8036 41.8636 86.3864 41.8636C89.9696 41.8636 90.5855 40.0243 90.978 37.8034C91.3704 35.5814 91.4032 33.7421 87.8216 33.7421ZM86.0702 43.6491C80.0708 43.6491 80.7687 39.7011 81.1031 37.8034C81.4388 35.905 82.1368 31.9565 88.1366 31.9565C94.1356 31.9565 93.4377 35.905 93.1036 37.8034C92.7679 39.7011 92.0713 43.6491 86.0702 43.6491Z" fill="#00C64E"/>
<path fill-rule="evenodd" clip-rule="evenodd" d="M105.449 42.4592C105.031 41.9171 104.685 41.4586 104.373 41.0428C103.748 40.2119 103.245 39.5461 102.57 38.757C105.015 38.1003 105.716 36.5138 105.901 35.4711C106.132 34.1589 105.839 31.9563 101.273 31.9563C98.7106 31.9563 96.5149 32.1011 96.4929 32.1028L96.0317 32.1338L95.9036 32.6535C95.8721 32.7727 95.1638 35.6175 94.7772 37.8036C94.3905 39.9884 94.0954 42.8316 94.0834 42.952L94.0266 43.5032H96.0242L97.6185 33.7422H100.957C102.382 33.7422 104.027 34.0431 103.775 35.4711C103.327 38.0006 97.6592 38.3829 97.6592 38.3829L97.5531 39.0607H100.018C100.029 39.0607 100.04 39.0591 100.052 39.0591C100.605 39.7563 102.067 41.6134 103.281 43.3294L103.403 43.5032H106.254L105.449 42.4592Z" fill="#00C64E"/>
<path fill-rule="evenodd" clip-rule="evenodd" d="M110.595 43.5033L112.319 33.7419H107.735L108.02 32.1294L108.526 32.1025C108.554 32.1008 111.381 31.9564 113.727 31.9564C116.074 31.9564 118.85 32.1008 118.878 32.1025L119.375 32.1294L119.075 33.8284L118.539 33.8152C118.514 33.8152 114.367 33.7436 114.367 33.7436L112.643 43.5033H110.595Z" fill="#00C64E"/>
</svg>
