<svg width="78" height="39" viewBox="0 0 78 39" fill="none" xmlns="http://www.w3.org/2000/svg">
<path d="M5.91162 8.67594H16.9907C20.2426 8.70324 22.5989 9.6408 24.0599 11.4871C25.5208 13.3333 26.0029 15.8551 25.5068 19.0523C25.3141 20.5132 24.8867 21.9461 24.2252 23.3516C23.5911 24.7572 22.7097 26.0247 21.5795 27.1549C20.2012 28.5878 18.727 29.4973 17.1561 29.8834C15.5852 30.2695 13.9589 30.4621 12.278 30.4621H7.31718L5.74626 38.3167H0L5.91162 8.67594M10.7484 13.3887L8.268 25.7907C8.43336 25.818 8.59872 25.832 8.76408 25.832C8.95674 25.832 9.15018 25.832 9.34284 25.832C11.9886 25.8593 14.1937 25.598 15.9572 25.0466C17.7208 24.4678 18.9064 22.4562 19.5125 19.0109C20.0086 16.1171 19.5125 14.4495 18.0242 14.0088C16.5633 13.5681 14.7311 13.3614 12.526 13.3887C12.1953 13.416 11.8786 13.43 11.5752 13.43C11.2999 13.43 11.0105 13.43 10.7071 13.43L10.7484 13.3887" fill="black"/>
<path d="M32.0526 0.779999H37.7575L36.1452 8.67594H41.2714C44.0825 8.73132 46.1768 9.31008 47.5551 10.4122C48.9606 11.5144 49.374 13.6094 48.7953 16.6959L46.0255 30.4621H40.2379L42.8837 17.316C43.159 15.9377 43.0763 14.9596 42.6356 14.3809C42.1949 13.8021 41.2441 13.5127 39.7832 13.5127L35.1944 13.4714L31.8045 30.4621H26.0996L32.0526 0.779999Z" fill="black"/>
<path d="M54.9214 8.67594H66.0005C69.2523 8.70324 71.6087 9.6408 73.0696 11.4871C74.5306 13.3333 75.0126 15.8551 74.5165 19.0523C74.3239 20.5132 73.8964 21.9461 73.235 23.3516C72.6009 24.7572 71.7195 26.0247 70.5892 27.1549C69.211 28.5878 67.7368 29.4973 66.1659 29.8834C64.5949 30.2695 62.9686 30.4621 61.2877 30.4621H56.3269L54.756 38.3167H49.0098L54.9214 8.67594M59.7582 13.3887L57.2778 25.7907C57.4431 25.818 57.6085 25.832 57.7738 25.832C57.9665 25.832 58.1599 25.832 58.3526 25.832C60.9984 25.8593 63.2034 25.598 64.967 25.0466C66.7306 24.4678 67.9162 22.4562 68.5222 19.0109C69.0183 16.1171 68.5222 14.4495 67.034 14.0088C65.5731 13.5681 63.7408 13.3614 61.5358 13.3887C61.2051 13.416 60.8884 13.43 60.585 13.43C60.3096 13.43 60.0202 13.43 59.7168 13.43L59.7582 13.3887" fill="black"/>
</svg>
