<svg width="46" height="40" viewBox="0 0 46 40" fill="none" xmlns="http://www.w3.org/2000/svg">
<rect width="46" height="39.3706" rx="5" fill="black"/>
<circle cx="5.8176" cy="4.32938" r="1.35294" fill="white"/>
<circle cx="9.87644" cy="4.32938" r="1.35294" fill="white"/>
<circle cx="13.9353" cy="4.32938" r="1.35294" fill="white"/>
<path d="M14.8823 20.6081C14.8823 21.2624 14.5966 21.8841 14.1 22.3102L7.63537 27.8568C6.76193 28.6062 5.41174 27.9856 5.41174 26.8348C5.41174 26.4241 5.5991 26.0359 5.92059 25.7805L12.3016 20.7095C12.3307 20.6864 12.3477 20.6513 12.3477 20.6142C12.3477 20.5793 12.3327 20.5461 12.3066 20.5229L5.85385 14.8135C5.57271 14.5648 5.41174 14.2074 5.41174 13.832C5.41174 12.6872 6.77648 12.0927 7.61478 12.8724L14.1669 18.9659C14.6232 19.3902 14.8823 19.9851 14.8823 20.6081Z" fill="white"/>
<path d="M31.1176 27.0588C31.1176 26.3116 30.5119 25.7059 29.7647 25.7059H16.2353C15.4881 25.7059 14.8823 26.3116 14.8823 27.0588C14.8823 27.806 15.4881 28.4118 16.2353 28.4118H29.7647C30.5119 28.4118 31.1176 27.806 31.1176 27.0588Z" fill="white"/>
</svg>
