<svg clip-rule="evenodd" fill-rule="evenodd" stroke-linejoin="round" stroke-miterlimit="2" viewBox="0 0 504 247"
     xmlns="http://www.w3.org/2000/svg">
    <g fill="#6f7170">
        <path d="m99.8 134.2c-18.2 0-33.2-14.2-34.4-32.2v-3.7c.7-18.3 15.9-33 34.4-33 19 0 34.4 15.4 34.4 34.4.1 19-15.4 34.5-34.4 34.5m0-79.6c-24.9 0-45.1 20.2-45.1 45.1 0 .9 0 1.7.1 2.6v83c0 3 2.4 5.3 5.3 5.3 3 0 5.4-2.4 5.4-5.3v-56.3c8.3 9.7 20.6 15.9 34.4 15.9 24.9 0 45.1-20.2 45.1-45.1s-20.3-45.2-45.2-45.2"
              fill-rule="nonzero"/>
        <path d="m247.8 34.5c-7.5 0-12.4 6-12.4 13.1 0 7.3 4.9 13.1 12.4 13.1 7.6 0 12.4-5.8 12.4-13.1 0-7.1-4.8-13.1-12.4-13.1m0 30.4c-9.9 0-17.3-7.2-17.3-17.3 0-10.2 7.4-17.2 17.3-17.2 10 0 17.4 6.9 17.4 17.2 0 10.1-7.4 17.3-17.4 17.3"
              fill-rule="nonzero"/>
        <path d="m278.2 60.2h5.8c3.9 0 8.1-1.2 8.1-5.6 0-3.8-2.7-5.5-7.7-5.5h-6.2zm.1-15h6c3.5 0 6.4-1.5 6.4-5.1 0-3.5-2.8-4.9-7.2-4.9h-5.2zm-4.6-13.9h11.3c5 0 10.3 2 10.3 8.3 0 3.6-2.3 6.2-5.7 7.1v.1c4.2.5 7.3 3.4 7.3 8 0 6.3-5.5 9.3-12.3 9.3h-10.8z"
              fill-rule="nonzero"/>
        <path d="m333.8 59c-2.5 3.5-6.8 5.9-12.5 5.9-10 0-17.3-7.2-17.3-17.3 0-10.2 7.5-17.2 17.4-17.2 4.5 0 9.3 1.8 11.8 5.1l-3.6 2.8c-1.6-2.2-4.8-3.8-8.1-3.8-7.6 0-12.4 6-12.4 13.1 0 7.4 4.8 13.2 12.3 13.2 3.7 0 6.8-1.5 8.8-4.3z"
              fill-rule="nonzero"/>
        <path d="m340.8 31.3h4.6v13.7h16.5v-13.7h4.7v32.8h-4.7v-15h-16.5v15h-4.6z" fill-rule="nonzero"/>
        <path d="m392.5 34.5c-7.5 0-12.4 6-12.4 13.1 0 7.3 4.9 13.1 12.4 13.1 7.6 0 12.4-5.8 12.4-13.1 0-7.1-4.8-13.1-12.4-13.1m0 30.4c-9.9 0-17.3-7.2-17.3-17.3 0-10.2 7.4-17.2 17.3-17.2 10 0 17.4 6.9 17.4 17.2 0 10.1-7.4 17.3-17.4 17.3"
              fill-rule="nonzero"/>
        <path d="m423 60h5.7c7.9 0 13.7-4.5 13.7-12.4 0-8.1-5.8-12.4-13.7-12.4h-5.7zm-4.6-28.7h11.2c8.4 0 17.7 4.8 17.7 16.4 0 11.2-9.3 16.4-17.7 16.4h-11.2z"
              fill-rule="nonzero"/>
        <path d="m479 57.5h.1v-26.2h4.6v32.8h-5.8l-17.3-26.8h-.1v26.8h-4.6v-32.8h6z" fill-rule="nonzero"/>
        <path d="m494 64.1h4.6v-32.8h-4.6zm4.5-42-4.6 6.7h3.5l6.3-6.7z" fill-rule="nonzero"/>
        <path d="m238.4 106h12.3l-6.1-15.4zm-4.9 12h-5.1l14.2-32.8h4.2l14.1 32.8h-5.2l-3.3-8h-15.5z"
              fill-rule="nonzero"/>
        <path d="m271.9 99.7h.1l14.6-14.4h6.4l-16 15 16.9 17.7h-6.5l-15.4-16.9h-.1v16.9h-4.6v-32.7h4.6z"
              fill-rule="nonzero"/>
        <path d="m305.8 106h12.3l-6.1-15.4zm-4.9 12h-5.1l14.2-32.8h4.2l14.1 32.8h-5.2l-3.3-8h-15.6z"
              fill-rule="nonzero"/>
        <path d="m339.4 114h5.7c7.9 0 13.7-4.5 13.7-12.4 0-8.1-5.8-12.4-13.7-12.4h-5.7zm-4.6-28.7h11.2c8.4 0 17.7 4.8 17.7 16.4 0 11.2-9.3 16.4-17.7 16.4h-11.2z"
              fill-rule="nonzero"/>
        <path d="m376.9 114h17.1v4h-21.7v-32.7h21v4h-16.4v9.8h15.4v4h-15.4z" fill-rule="nonzero"/>
        <path d="m419.3 110.5h.1l9.7-25.2h7.1v32.7h-4.5v-27.3h-.1l-10.9 27.3h-2.9l-10.8-27.3h-.1v27.3h-4.5v-32.7h7.1z"
              fill-rule="nonzero"/>
        <path d="m446.5 85.3h4.6v32.8h-4.6z"/>
        <path d="m465.9 114h17.2v4h-21.7v-32.7h21v4h-16.5v9.8h15.5v4h-15.5z" fill-rule="nonzero"/>
    </g>
    <path d="m236.7 153.7h4.9c4.5 0 7.6-1.5 7.6-5.4s-3.2-5.2-7.5-5.2h-4.9v10.6zm-4.6-14.4h10c7.1 0 11.7 2.7 11.7 9.1 0 6.6-5.1 9.3-11.9 9.3h-5.2v14.4h-4.6z"
          fill="#a2c037" fill-rule="nonzero"/>
    <path d="m265.4 159.9h12.3l-6.1-15.4zm-4.9 12.1h-5.1l14.2-32.8h4.2l14.1 32.8h-5.2l-3.3-8h-15.5z" fill="#a2c037"
          fill-rule="nonzero"/>
    <path d="m299 153.6h5.3c4.3 0 7.7-1.3 7.7-5.3s-3.4-5.2-7.4-5.2h-5.6zm0 18.4h-4.6v-32.8h10.5c6.3 0 11.7 2.4 11.7 9.1 0 4.8-3.3 7.9-8 8.7l9.2 15h-5.6l-8.3-14.6h-4.9z"
          fill="#a2c037" fill-rule="nonzero"/>
    <path d="m329.7 168h5.7c7.9 0 13.7-4.5 13.7-12.4 0-8.1-5.8-12.4-13.7-12.4h-5.7zm-4.6-28.7h11.2c8.4 0 17.7 4.8 17.7 16.4 0 11.2-9.3 16.4-17.7 16.4h-11.2z"
          fill="#a2c037" fill-rule="nonzero"/>
    <path d="m362.4 159.9v-20.6h4.6v20.3c0 4.5 2 9.1 8.1 9.1s8.1-4.6 8.1-9.1v-20.4h4.6v20.6c0 6.7-4.1 13-12.7 13-8.6.1-12.7-6.2-12.7-12.9"
          fill="#a2c037" fill-rule="nonzero"/>
    <path d="m402.4 168.1h5.8c3.9 0 8.1-1.2 8.1-5.6 0-3.8-2.7-5.5-7.7-5.5h-6.2zm.1-15h6c3.5 0 6.4-1.5 6.4-5.1 0-3.5-2.8-4.9-7.2-4.9h-5.2zm-4.6-13.8h11.3c4.9 0 10.3 2 10.3 8.3 0 3.6-2.3 6.2-5.7 7.1v.1c4.2.5 7.3 3.4 7.3 8 0 6.3-5.5 9.3-12.3 9.3h-10.8z"
          fill="#a2c037" fill-rule="nonzero"/>
    <path d="m429.9 139.3h4.6v32.8h-4.6z" fill="#a2c037"/>
    <path d="m472.8 166.9c-2.5 3.5-6.8 5.9-12.5 5.9-10 0-17.3-7.2-17.3-17.3 0-10.2 7.5-17.2 17.4-17.2 4.5 0 9.3 1.8 11.7 5.1l-3.6 2.8c-1.6-2.2-4.8-3.8-8.1-3.8-7.6 0-12.4 6-12.4 13.1 0 7.4 4.8 13.2 12.3 13.2 3.7 0 6.8-1.5 8.8-4.3z"
          fill="#a2c037" fill-rule="nonzero"/>
    <path d="m484.4 167.9h17.1v4.1h-21.7v-32.7h21v4h-16.4v9.8h15.4v3.9h-15.4z" fill="#a2c037" fill-rule="nonzero"/>
    <path d="m170.3 154.2c-.3.3-.5.7-.8 1-.2.2-.3.4-.5.6-.2.3-.5.6-.7.9s-.4.5-.6.7c-.2.3-.4.5-.7.8-.2.3-.5.6-.7.8s-.4.5-.6.7c-.3.3-.6.6-.9 1-.2.2-.3.4-.5.5-.5.5-1 1-1.4 1.5-16.8 16.8-39.2 26.1-63 26.1-12 0-23.7-2.4-34.5-6.9v-18.1c-3.8-2-7.3-4.4-10.7-7.1v19.9c-6.4-3.8-12.4-8.4-17.8-13.8-16.8-16.8-26.1-39.2-26.1-63s9.3-46.2 26.1-63 39.2-26.1 63-26.1c23.4 0 45.3 8.9 62 25.2.3.3.6.6 1 .9.5.5 1 1 1.4 1.5.2.2.3.4.5.5.3.3.6.6.9 1 .2.2.4.5.6.7.2.3.5.6.7.8.2.3.4.5.7.8.2.2.4.5.6.8s.5.6.7.9c.2.2.3.4.5.6.3.3.5.6.8 1 .1.1.2.2.2.3 11.9 15.5 18.4 34.3 18.4 54.2s-6.5 38.7-18.4 54.2c0-.1-.1 0-.2.1m21.5-93.3c-5-11.9-12.2-22.6-21.4-31.7-9.2-9.2-19.8-16.4-31.7-21.4-12.3-5.2-25.4-7.8-38.9-7.8s-26.5 2.6-38.9 7.8c-11.9 5-22.6 12.2-31.7 21.4-9.2 9.2-16.4 19.8-21.4 31.7-5.2 12.3-7.8 25.4-7.8 38.9s2.6 26.5 7.8 38.9c5 11.9 12.2 22.6 21.4 31.7 8.3 8.3 17.8 15 28.3 19.9.1.1.2.1.3.1 1 .5 2 .9 3.1 1.4 12.3 5.2 25.4 7.8 38.9 7.8s26.5-2.6 38.9-7.8c11.9-5 22.6-12.2 31.7-21.4s16.4-19.8 21.4-31.7c5.2-12.3 7.8-25.4 7.8-38.9s-2.6-26.6-7.8-38.9"
          fill="#a2c037" fill-rule="nonzero"/>
    <path d="m99.8 65.2c19 0 34.5 15.5 34.5 34.5s-15.5 34.5-34.5 34.5-34.5-15.5-34.5-34.5 15.5-34.5 34.5-34.5m0 79.8c24.9 0 45.2-20.3 45.2-45.2s-20.3-45.2-45.2-45.2c-24.8 0-45 20.1-45.2 44.8v42.8c.5.5.9 1 1.4 1.5 2.9 2.9 6 5.5 9.3 7.7v-22.3c8.3 9.7 20.7 15.9 34.5 15.9"
          fill="#a2c037" fill-rule="nonzero"/>
    <path d="m143.7 143.6c-11.7 11.7-27.3 18.2-43.8 18.2-16.6 0-32.1-6.4-43.8-18.2-11.7-11.7-18.2-27.3-18.2-43.8 0-16.6 6.4-32.1 18.2-43.8 11.7-11.7 27.3-18.2 43.8-18.2 16.6 0 32.1 6.4 43.8 18.2 11.7 11.7 18.2 27.3 18.2 43.8-.1 16.5-6.5 32.1-18.2 43.8m28.9-95.3c-2.9-4.1-6.2-7.9-9.8-11.6-.3-.3-.6-.6-1-.9v26c-3-4.8-6.5-9.3-10.6-13.4-13.7-13.7-32-21.3-51.4-21.3s-37.7 7.6-51.4 21.3-21.3 32-21.3 51.4 7.6 37.7 21.3 51.4 32 21.3 51.4 21.3 37.7-7.6 51.4-21.3c4.1-4.1 7.7-8.6 10.6-13.4v26c.3-.3.6-.6 1-.9 3.6-3.6 6.9-7.5 9.8-11.6z"
          fill="#6f7170" fill-rule="nonzero"/>
    <path d="m493.3 228.9 3.5 9.3h-7zm-4.4 11.8h8.9l1.9 4.9h3l-8-19.9h-2.5l-8.1 19.9h2.9zm-18-15h-2.9l7.3 19.9h2.4l7.3-19.9h-2.8l-5.6 16.3h-.1zm-4.9 0h-2.6v19.9h2.6zm-10.8 2.4h6v-2.4h-14.6v2.4h6v17.4h2.6zm-20.6-2.4h-2.8v19.9h2.6v-10.3h.1l8.8 10.3h3.8l-9.6-10.8 9.1-9.1h-3.6l-8.3 8.8h-.1zm-15.8 10.8h8.8v-2.4h-8.8v-5.9h9.4v-2.4h-12v19.9h12.4v-2.5h-9.8zm-15.5-8.5h2.9c.6 0 1.2.1 1.7.2s1 .3 1.4.5c.4.3.7.6.9 1s.3.9.3 1.5-.1 1.1-.3 1.5-.5.7-.9 1-.9.4-1.4.6c-.5.1-1.1.2-1.8.2h-2.8zm-2.5 17.5h2.6v-8.7h3c1 0 1.9-.1 2.7-.3s1.6-.5 2.2-1c.6-.4 1.1-1 1.4-1.7s.5-1.6.5-2.6-.2-1.8-.5-2.5-.8-1.3-1.3-1.7c-.6-.4-1.3-.8-2.1-1s-1.7-.3-2.7-.3h-5.7v19.8zm-3.7-18c-.6-.7-1.3-1.2-2.3-1.7-1-.4-2-.6-3.1-.6-.8 0-1.5.1-2.3.3s-1.5.6-2.1 1c-.6.5-1.1 1.1-1.5 1.8s-.6 1.6-.6 2.6c0 .9.1 1.7.4 2.3s.7 1.1 1.1 1.6c.5.4 1 .8 1.6 1 .6.3 1.2.5 1.8.7s1.2.4 1.7.6 1 .4 1.4.7.7.6 1 1c.2.4.4.9.4 1.5s-.1 1.1-.3 1.5-.5.8-.9 1.1-.8.5-1.2.6-.9.2-1.3.2c-.9 0-1.7-.2-2.4-.6s-1.3-1-1.8-1.7l-2 1.8c.7 1 1.6 1.7 2.7 2.2s2.2.7 3.4.7c.8 0 1.6-.1 2.4-.4.8-.2 1.5-.6 2.1-1.1s1.1-1.1 1.4-1.9c.4-.8.5-1.7.5-2.7s-.2-1.8-.5-2.5c-.3-.6-.8-1.2-1.3-1.6s-1.1-.8-1.8-1c-.7-.3-1.3-.5-1.9-.7-.5-.2-1-.4-1.5-.5-.5-.2-.9-.4-1.2-.6-.3-.3-.6-.6-.8-.9-.2-.4-.3-.8-.3-1.4s.1-1 .3-1.4.5-.7.9-1 .7-.5 1.2-.6c.4-.1.9-.2 1.3-.2.8 0 1.5.2 2.1.5s1.1.8 1.5 1.3zm-24.5.5h3.2c.6 0 1.1.1 1.6.2s1 .3 1.3.5c.4.2.7.6.9 1s.3.9.3 1.5-.1 1.1-.3 1.5-.5.7-.9 1-.9.4-1.4.5-1.1.2-1.7.2h-3zm0 8.7h2.8l4.8 8.8h3.2l-5.2-9.1c1.3-.2 2.4-.8 3.3-1.7.8-.9 1.3-2.1 1.3-3.5 0-1-.2-1.9-.5-2.6-.4-.7-.8-1.3-1.4-1.7s-1.3-.7-2.1-.9-1.7-.3-2.6-.3h-6v19.9h2.6v-8.9zm-15.6-.2h8.8v-2.4h-8.8v-5.9h9.4v-2.4h-12v19.9h12.4v-2.5h-9.8z"
          fill="#6f7170" fill-rule="nonzero"/>
    <path d="m345.6 229.2c-.2.4-.5.7-.9 1-.4.2-.9.4-1.4.5s-1 .1-1.6.1h-2.5v-6.1h2.6c.5 0 1 0 1.5.1s.9.2 1.3.4.7.5.9.9.3.9.3 1.5c.1.7 0 1.2-.2 1.6m5.5-5.3c-.5-1-1.2-1.8-2-2.4-.9-.6-1.9-1.1-3-1.3-1.2-.3-2.4-.4-3.7-.4h-8.9v25.8h5.9v-9.7h2.9c1.3 0 2.5-.1 3.6-.4 1.2-.3 2.2-.8 3.1-1.4s1.6-1.5 2.1-2.5.8-2.3.8-3.8c-.1-1.6-.4-2.9-.8-3.9"
          fill="#a2bd30" fill-rule="nonzero"/>
    <path d="m323.9 235.4h-10.8v2.1h10.8zm-28.8 1.1h8.8v-2.4h-8.8v-5.9h9.4v-2.4h-12v19.9h12.4v-2.5h-9.8zm-7.1 4.4c-.6.9-1.3 1.5-2.1 2-.9.4-1.8.7-2.9.7s-2-.2-2.9-.6-1.6-1-2.2-1.7-1.1-1.6-1.4-2.5c-.3-1-.5-2-.5-3.1s.2-2.1.5-3.1.8-1.8 1.4-2.5 1.4-1.3 2.2-1.7c.9-.4 1.9-.6 2.9-.6s1.9.2 2.7.7c.8.4 1.5 1 1.9 1.7l2.1-1.7c-.4-.5-.8-.9-1.3-1.3s-1-.7-1.6-1-1.2-.5-1.9-.6-1.3-.2-1.9-.2c-1.4 0-2.7.3-4 .8-1.2.5-2.3 1.2-3.2 2.1s-1.6 2-2.1 3.3-.8 2.7-.8 4.3c0 1.5.2 2.9.7 4.2s1.2 2.4 2 3.3c.9.9 1.9 1.6 3.1 2.2 1.2.5 2.5.8 3.9.8 1.7 0 3.1-.3 4.3-1s2.1-1.5 2.9-2.6zm-18.3-15.2h-2.6v19.9h2.6zm-16.8 10.7h3.6c1.4 0 2.5.3 3.3.8s1.1 1.4 1.1 2.6c0 .7-.1 1.2-.4 1.7-.3.4-.6.8-1.1 1.1-.4.3-1 .4-1.5.5-.6.1-1.1.2-1.7.2h-3.3zm.1-8.4h3c1.3 0 2.2.2 3 .7.7.5 1.1 1.2 1.1 2.3 0 .5-.1 1-.3 1.4s-.5.7-.8 1-.7.4-1.2.6c-.4.1-.9.2-1.4.2h-3.4zm-2.6 17.5h6.2c1 0 1.9-.1 2.7-.4.9-.2 1.6-.6 2.2-1 .6-.5 1.1-1 1.5-1.8.4-.7.6-1.5.6-2.5 0-.7-.1-1.3-.3-1.9s-.5-1-.9-1.5c-.4-.4-.8-.7-1.3-1s-1.1-.4-1.7-.5v-.1c1-.3 1.8-.8 2.4-1.5s.9-1.7.9-2.8c0-1-.2-1.7-.5-2.4-.3-.6-.8-1.2-1.3-1.5-.6-.4-1.2-.7-1.9-.8-.7-.2-1.4-.3-2.1-.3h-6.4v20zm-19.5-19.8h-4.1v19.9h2.5v-16.6h.1l6.2 16.6h1.7l6.2-16.6h.1v16.6h2.6v-19.9h-4.1l-5.5 15.3h-.1z"
          fill="#6f7170" fill-rule="nonzero"/>
    <path d="m215.7 235.5h-6.1l3.1-8.9zm10 10-10.1-25.8h-5.7l-10.2 25.8h6.4l1.8-5.1h9.4l1.9 5.1z" fill="#a2bd30"
          fill-rule="nonzero"/>
    <path d="m193.2 235.4h-10.8v2.1h10.8zm-23.4-7.3h6v-2.4h-14.6v2.4h6v17.4h2.6zm-9.7-.6c-.6-.7-1.3-1.2-2.3-1.7-1-.4-2-.6-3.1-.6-.8 0-1.5.1-2.3.3s-1.5.6-2.1 1c-.6.5-1.1 1.1-1.5 1.8s-.6 1.6-.6 2.6c0 .9.1 1.7.4 2.3s.7 1.1 1.1 1.6c.5.4 1 .8 1.6 1 .6.3 1.2.5 1.8.7s1.2.4 1.7.6 1 .4 1.4.7.7.6 1 1c.2.4.4.9.4 1.5s-.1 1.1-.3 1.5-.5.8-.9 1.1-.8.5-1.2.6-.9.2-1.3.2c-.9 0-1.7-.2-2.4-.6s-1.3-1-1.8-1.7l-2 1.8c.7 1 1.6 1.7 2.7 2.2s2.2.7 3.4.7c.8 0 1.6-.1 2.4-.4.8-.2 1.5-.6 2.1-1.1s1.1-1.1 1.4-1.9c.4-.8.5-1.7.5-2.7s-.2-1.8-.5-2.5c-.3-.6-.8-1.2-1.3-1.6s-1.1-.8-1.8-1c-.7-.3-1.3-.5-1.9-.7-.5-.2-1-.4-1.5-.5-.5-.2-.9-.4-1.2-.6-.3-.3-.6-.6-.8-.9-.2-.4-.3-.8-.3-1.4s.1-1 .3-1.4.5-.7.9-1 .7-.5 1.2-.6c.4-.1.9-.2 1.3-.2.8 0 1.5.2 2.1.5s1.1.8 1.5 1.3zm-17.8 11.2c-.3 1-.8 1.8-1.4 2.5s-1.4 1.3-2.2 1.7c-.9.4-1.9.6-2.9.6-1.1 0-2-.2-2.9-.6s-1.6-1-2.2-1.7-1.1-1.6-1.4-2.5c-.3-1-.5-2-.5-3.1s.2-2.1.5-3.1.8-1.8 1.4-2.5 1.3-1.3 2.2-1.7 1.8-.6 2.9-.6 2.1.2 2.9.6c.9.4 1.6 1 2.2 1.7s1.1 1.6 1.4 2.5c.3 1 .5 2 .5 3.1s-.2 2.1-.5 3.1m2.6-7.4c-.5-1.3-1.2-2.4-2.1-3.3s-1.9-1.6-3.1-2.1-2.5-.8-4-.8c-1.4 0-2.7.3-3.9.8s-2.3 1.2-3.1 2.1c-.9.9-1.6 2-2.1 3.3s-.7 2.7-.7 4.3c0 1.5.2 2.9.7 4.2s1.2 2.4 2.1 3.3 1.9 1.6 3.1 2.2c1.2.5 2.5.8 3.9.8s2.7-.3 4-.8c1.2-.5 2.3-1.2 3.1-2.2.9-.9 1.6-2 2.1-3.3s.8-2.7.8-4.2c-.1-1.6-.3-3-.8-4.3m-34.9-5.6h-3.4v19.9h2.6v-16.2h.1l9.9 16.2h3.3v-19.9h-2.6v15.9h-.1zm-16.7 2.3h3.2c.6 0 1.1.1 1.6.2s1 .3 1.3.5c.4.2.7.6.9 1s.3.9.3 1.5-.1 1.1-.3 1.5-.5.7-.9 1-.9.4-1.4.5-1.1.2-1.7.2h-3zm0 8.7h2.8l4.8 8.8h3.2l-5.2-9.1c1.3-.2 2.4-.8 3.3-1.7.8-.9 1.3-2.1 1.3-3.5 0-1-.2-1.9-.5-2.6-.4-.7-.8-1.3-1.4-1.7s-1.3-.7-2.1-.9-1.7-.3-2.6-.3h-6v19.9h2.6v-8.9zm-9.3 2c-.3 1-.8 1.8-1.4 2.5s-1.4 1.3-2.2 1.7c-.9.4-1.9.6-2.9.6-1.1 0-2-.2-2.9-.6s-1.6-1-2.2-1.7-1.1-1.6-1.4-2.5c-.3-1-.5-2-.5-3.1s.2-2.1.5-3.1.8-1.8 1.4-2.5 1.3-1.3 2.2-1.7 1.8-.6 2.9-.6 2.1.2 2.9.6c.9.4 1.6 1 2.2 1.7s1.1 1.6 1.4 2.5c.3 1 .5 2 .5 3.1s-.1 2.1-.5 3.1m2.6-7.4c-.5-1.3-1.2-2.4-2.1-3.3s-1.9-1.6-3.1-2.1-2.5-.8-4-.8-2.7.3-3.9.8-2.3 1.2-3.1 2.1c-.9.9-1.6 2-2.1 3.3s-.7 2.7-.7 4.3c0 1.5.2 2.9.7 4.2s1.2 2.4 2.1 3.3 1.9 1.6 3.1 2.2c1.2.5 2.5.8 3.9.8s2.7-.3 4-.8c1.2-.5 2.3-1.2 3.1-2.2.9-.9 1.6-2 2.1-3.3s.8-2.7.8-4.2c0-1.6-.3-3-.8-4.3m-32.3 5.1h3.6c1.4 0 2.5.3 3.3.8s1.1 1.4 1.1 2.6c0 .7-.1 1.2-.4 1.7-.3.4-.6.8-1.1 1.1-.4.3-1 .4-1.5.5-.6.1-1.1.2-1.7.2h-3.3zm.1-8.4h3c1.3 0 2.2.2 3 .7.7.5 1.1 1.2 1.1 2.3 0 .5-.1 1-.3 1.4s-.5.7-.8 1-.7.4-1.2.6c-.4.1-.9.2-1.4.2h-3.4zm-2.6 17.5h6.2c1 0 1.9-.1 2.7-.4.9-.2 1.6-.6 2.2-1 .6-.5 1.1-1 1.5-1.8.4-.7.6-1.5.6-2.5 0-.7-.1-1.3-.3-1.9s-.5-1-.9-1.5c-.4-.4-.8-.7-1.3-1s-1.1-.4-1.7-.5v-.1c1-.3 1.8-.8 2.4-1.5s.9-1.7.9-2.8c0-1-.2-1.7-.5-2.4-.3-.6-.8-1.2-1.3-1.5-.6-.4-1.2-.7-1.9-.8-.7-.2-1.4-.3-2.1-.3h-6.4v20zm-17.2-17.4h3.3c1.1 0 2.2.2 3.1.5 1 .3 1.8.8 2.5 1.4s1.2 1.4 1.6 2.3.6 2 .6 3.3c0 1.2-.2 2.2-.6 3.2-.4.9-.9 1.7-1.6 2.4-.7.6-1.5 1.1-2.5 1.5-1 .3-2 .5-3.1.5h-3.3zm-2.6 17.4h6.4c1.2 0 2.4-.2 3.6-.6s2.3-1 3.2-1.8c1-.8 1.8-1.8 2.4-3.1.6-1.2.9-2.7.9-4.4 0-1.8-.3-3.3-.9-4.5-.6-1.3-1.4-2.3-2.4-3.1s-2.1-1.4-3.2-1.8c-1.2-.4-2.4-.6-3.6-.6h-6.4z"
          fill="#6f7170" fill-rule="nonzero"/>
    <path d="m22.2 235.8c-.3 1-.8 1.8-1.4 2.5s-1.4 1.3-2.2 1.7-1.8.6-2.8.6-2-.2-2.8-.6-1.6-1-2.2-1.7-1.1-1.6-1.4-2.5c-.3-1-.5-2.1-.5-3.2s.2-2.2.5-3.1c.3-1 .8-1.8 1.4-2.5s1.4-1.2 2.2-1.6 1.8-.6 2.8-.6 2 .2 2.8.6c.9.4 1.6.9 2.2 1.6s1.1 1.5 1.4 2.5.5 2 .5 3.1-.2 2.2-.5 3.2m5.8-8.9c-.7-1.7-1.6-3.1-2.8-4.3s-2.6-2.1-4.2-2.7-3.4-.9-5.3-.9-3.7.3-5.3.9-3 1.5-4.2 2.7-2.1 2.6-2.8 4.3-1 3.5-1 5.6c0 2 .3 3.9 1 5.6s1.6 3.1 2.8 4.3 2.6 2.1 4.2 2.8 3.4 1 5.3 1 3.7-.3 5.3-1 3-1.6 4.2-2.8 2.1-2.7 2.8-4.3c.7-1.7 1-3.6 1-5.6s-.3-3.9-1-5.6"
          fill="#a2bd30" fill-rule="nonzero"/>
</svg>
