<svg width="1728" height="485" viewBox="0 0 1728 485" fill="none" xmlns="http://www.w3.org/2000/svg" preserveAspectRatio="none">
<path d="M0 0C0 0 64.1962 30.5251 108.5 35.5C152.736 40.4672 175.289 30.3203 219.5 35.5C277.412 42.2849 303.524 67.4983 360 82C430.931 100.213 474.482 106.207 547 96C605.091 87.8238 616.5 113.5 679 96C726.185 82.7881 786.408 91.4046 850.5 86.5C898.595 82.8195 915.931 65.5 966.5 65.5C1016.5 65.5 1032.47 76.4805 1075.88 82C1163.41 93.1316 1209.1 43.2847 1297 35.5C1362.35 29.7121 1399.94 43.984 1465 35.5C1522.06 28.0593 1554.5 46.5 1612.5 46.5C1659.7 46.5 1728 35.5 1728 35.5V277.5H0V0Z" fill="#F8F8F8"/>
<path d="M0 59C0 59 79 67 150.646 83.9143C222.292 100.829 356.677 108.829 456.369 117.549C556.062 126.269 651.572 172.785 764 170.5C874.293 168.258 855.577 150.617 988.5 145.5C1121.42 140.383 1157.5 147 1275 158C1392.5 169 1728 133 1728 133V277H0V59Z" fill="#EAEAEA"/>
<path d="M0 224C0 224 75.7538 206.049 140 208.5C204.246 210.951 334.308 260.34 434 277.5C533.692 294.66 574.572 228.497 687 224C797.293 219.589 889.5 156.5 1020 178.571C1150.5 200.643 1233 114.834 1352 131.994C1471 149.154 1728 119 1728 119V485H0V224Z" fill="#D7D7D7"/>
<path d="M0 202.76C0 202.76 86.4 179.24 150.646 181.2C214.892 183.16 356.677 220.4 456.369 234.12C556.062 247.84 606.072 262.095 718.5 258.5C828.793 254.973 887.077 288.551 1020 280.5C1152.92 272.449 1259.65 288.64 1381.5 271C1503.35 253.36 1728 234.12 1728 234.12V485H0V202.76Z" fill="#C5C5C5"/>
<path d="M0 341.807C0 341.807 162.254 357.456 226.5 359C290.746 360.544 377.5 341.807 475 310.5C572.5 279.193 607.572 244.332 720 241.5C830.293 238.722 862.077 263.114 995 241.5C1127.92 219.886 1238.5 255.5 1312.5 268C1386.5 280.5 1410.21 277.5 1535.5 277.5C1650.7 265.149 1728 229 1728 229V419H0V341.807Z" fill="#A3A3A3"/>
<path d="M0 407.807C0 407.807 161.723 392.368 225.969 393.912C290.215 395.456 465.231 383.105 564.923 393.912C664.615 404.719 605.357 392.113 717.785 389.281C828.078 386.502 832.985 383.105 965.908 361.491C1098.83 339.877 1183.02 298.193 1253.91 264.228C1324.8 230.263 1331.45 244.158 1453.29 251.877C1568.49 239.526 1728 221 1728 221V485H0V407.807Z" fill="#868686"/>
<path d="M0 342.646C0 342.646 86.4 330.783 150.646 331.771C214.892 332.76 356.677 351.543 456.369 358.463C556.062 365.383 631.942 363.242 744.369 361.429C854.662 359.65 892.8 353.626 1025.72 349.566C1158.65 345.505 1220.68 358.463 1342.52 349.566C1464.37 340.669 1728 312 1728 312V485H0V342.646Z" fill="#5E5E5E"/>
</svg>
