<svg width="144" height="52" viewBox="0 0 144 52" fill="none" xmlns="http://www.w3.org/2000/svg">
    <rect width="143.52" height="51.97" fill="#1D2E38"/>
    <path fill-rule="evenodd" clip-rule="evenodd" d="M55.901 37.6112H62.5625V17.4867H55.901V37.6112ZM59.1983 7C56.75 7 55.5576 8.97143 55.5576 10.9842C55.5576 12.9524 56.75 14.9684 59.1983 14.9684C61.6722 14.9684 62.8836 12.9524 62.8836 10.9842C62.8836 8.97143 61.6722 7 59.1983 7ZM65.5165 37.6112H72.1557V7.20668H65.5165V37.6112ZM82.8491 24.8828C81.4977 24.5839 81.0176 24.3104 81.0176 23.6904C81.0176 23.2102 81.3133 22.8223 82.6202 22.8223C83.7394 22.8223 85.1131 23.3247 86.1433 23.7381L87.4502 18.6092C86.1433 17.9001 84.8619 17.28 81.2465 17.28C76.9412 17.28 74.8807 20.6474 74.8807 23.9416C74.8807 27.0577 76.1844 29.1849 79.1384 30.0085C80.6042 30.4218 81.1066 30.9497 81.1066 31.5665C81.1066 32.1834 80.6042 32.5268 79.7584 32.5268C78.4516 32.5268 77.0334 32.0244 75.7742 31.2677L74.124 35.5285C75.6375 36.8322 77.4436 38.1136 80.4198 38.1136C85.6632 38.1136 88.2515 34.9307 88.2515 31.2454C88.2515 28.4059 86.4645 25.6141 82.8491 24.8828ZM98.1404 17.4867V11.6933H91.4789V17.4867H89.8318V23.7826H91.4789V37.6112H98.1404V23.7826H100.478V17.4867H98.1404Z" fill="white"/>
    <path fill-rule="evenodd" clip-rule="evenodd" d="M129.07 31.3599H129.047C127.629 31.3599 126.895 29.5506 126.895 27.7445C126.895 25.9575 127.629 24.1483 129.047 24.1483H129.07C130.491 24.1483 131.222 25.9575 131.222 27.7445C131.222 29.5506 130.491 31.3599 129.07 31.3599ZM131.085 17.1879C130.24 17.1879 129.597 17.3723 129.047 17.6712C128.109 18.1736 127.537 19.0448 127.057 19.9129V17.4868H120.418V45.9675H127.057V35.7098C127.445 36.4188 127.925 37.2901 129.047 37.748C129.575 37.9769 130.214 38.1136 131.085 38.1136C135.365 38.1136 137.518 32.8957 137.518 27.6746C137.518 22.409 135.365 17.1879 131.085 17.1879Z" fill="white"/>
    <path fill-rule="evenodd" clip-rule="evenodd" d="M108.465 24.8828C108.465 24.3899 108.579 23.7699 108.866 23.277C109.152 22.781 109.61 22.4089 110.297 22.4089C111.648 22.4312 112.128 23.8048 112.128 24.8828H108.465ZM118.357 28.7271V27.859C118.357 22.4089 115.953 17.3277 110.297 17.1878H110.068C104.621 17.1878 101.896 22.5012 101.896 27.7445C101.896 33.0101 104.621 38.2758 110.023 38.2758H110.297C115.196 38.1613 117.257 35.0929 118.22 31.9322C118.287 31.6111 118.335 31.2677 118.335 30.9242H112.128C111.991 31.8654 111.696 32.9402 110.344 32.9402C110.322 32.9402 110.322 32.9179 110.297 32.9179C109.037 32.8957 108.376 31.7033 108.376 28.7271H118.357Z" fill="white"/>
    <path fill-rule="evenodd" clip-rule="evenodd" d="M43.8371 31.1087H43.8149C42.2568 31.1087 41.5922 29.2327 41.5922 27.3089C41.5922 25.3629 42.3013 23.4837 43.8149 23.4837H43.8371C45.303 23.4837 46.0566 25.3852 46.0566 27.3089C46.0566 29.2327 45.303 31.1087 43.8371 31.1087ZM46.1933 17.4868V19.6617C45.7132 18.6537 45.0263 17.8747 43.8371 17.509C43.357 17.35 42.8069 17.2801 42.1646 17.2801C37.7003 17.2801 35.5031 22.4535 35.5031 27.6746C35.5031 32.848 37.7003 38.0214 42.1646 38.0214C42.8291 38.0214 43.357 37.9324 43.8371 37.748C45.1885 37.2678 45.8276 36.1676 46.1933 35.3218V37.6112H52.7435V17.4868H46.1933Z" fill="white"/>
    <path fill-rule="evenodd" clip-rule="evenodd" d="M16.8674 37.6105H23.5295V26.049C23.5295 24.9272 23.7585 23.3246 25.2237 23.3246C26.666 23.3246 26.8034 25.0188 26.8034 26.049V37.6105H33.4655V23.6681C33.4655 20.3713 31.6798 17.1662 28.0168 17.1662C24.9719 17.1662 23.9874 18.3337 23.0946 19.3869C22.3848 18.2651 21.3546 17.1662 18.5615 17.1662C16.0661 17.1662 14.4635 18.494 13.5935 19.5929V17.4638H7.00006V37.6105H13.5706V26.049C13.5706 24.8585 13.8225 23.3246 15.219 23.3246C16.6842 23.3246 16.8674 24.8585 16.8674 26.049V37.6105Z" fill="#E20714"/>
</svg>
