<svg width="138" height="65" viewBox="0 0 138 65" fill="none" xmlns="http://www.w3.org/2000/svg">
<path d="M84.8294 43.1641C81.9883 43.1641 81.1765 42.4531 80.3647 40.4727L78.8427 36.7656L77.828 42.8086C77.1684 43.0625 75.4434 43.1641 74.378 43.1641C71.689 43.1641 69.964 42.5039 69.964 39.3047C69.964 38.1875 70.1669 36.918 70.3699 35.5977L71.7905 26.8125C73.1603 18.3828 76.4074 15.0312 81.3794 15.0312C84.3221 15.0312 85.5905 16.1992 85.5905 18.332C85.5905 19.043 85.4383 19.7031 85.1846 20.3125C83.9162 20.6172 82.3434 21.2266 81.4809 21.6328L80.5169 26.9648C82.039 25.3398 83.5103 24.5273 86.0978 24.5273C89.4463 24.5273 90.8669 26.3555 90.8669 28.793C90.8669 31.9922 88.939 33.9219 86.25 34.6836C86.25 34.6836 87.0111 35.5469 87.5184 36.0547C87.8228 36.3594 88.178 36.6133 88.6346 36.6133C89.1419 36.6133 89.8015 36.5117 90.4103 36.3594C91.2728 36.7656 91.7802 37.9336 91.7802 39.1523C91.8309 41.8945 88.4824 43.1641 84.8294 43.1641ZM81.7346 30.8242C80.9736 30.8242 80.3647 31.1797 79.8066 31.6875L79.35 34.0742C79.7052 34.125 80.0096 34.1758 80.2633 34.1758C81.6331 34.1758 82.8508 33.3125 82.8508 31.9922C82.8508 31.2812 82.4956 30.8242 81.7346 30.8242Z" fill="#8DA7A3"/>
<path d="M61.0345 41.5391C58.9037 41.5391 57.8889 40.6758 57.8889 39.1016C57.8889 38.3906 58.0412 37.5781 58.2441 36.9688C57.2801 40.3203 53.9823 41.5898 50.7353 41.5898C48.097 41.5898 46.2198 40.3711 46.2198 37.4766C46.2198 36.6133 46.372 35.293 46.575 34.1758L47.6404 28.8438L46.1184 29.1484C45.6617 28.7422 45.2559 27.7773 45.2559 26.9141C45.2559 24.0195 47.6404 22.9023 52.8154 22.9023C56.3162 22.9023 56.6713 24.4766 56.2654 26.8125L55.0985 33.3633C54.8956 34.582 55.2507 34.7344 56.0625 34.7344C56.5698 34.7344 57.2294 34.3789 57.4323 34.125L58.7007 26.457C59.1066 23.7656 59.5632 22.9023 63.2162 22.9023C64.7889 22.9023 66.5647 23.4102 67.3765 24.2227L65.8037 33.4141C65.7529 33.8203 65.6514 34.2773 65.6514 34.4805C65.6514 34.8359 65.8037 35.0391 66.311 35.0391C66.7676 35.0391 67.072 34.9375 67.3765 34.8359C68.4419 35.293 69 36.3594 69 37.5273C68.9492 40.2695 65.2963 41.5391 61.0345 41.5391Z" fill="#879155"/>
<path d="M42.7191 32.5C42.364 32.2969 41.3493 32.1445 40.0302 32.1445C37.4934 32.1445 35.8699 33.5156 35.8699 35.6992C35.8699 37.5273 36.7831 38.1875 38.6603 38.1875C39.8272 38.1875 41.1971 37.8828 42.2118 37.375C43.3279 37.6797 44.0382 38.8477 44.0382 40.0156C44.0382 42.8086 40.6897 44.4844 35.5654 44.4844C30.6441 44.4844 27.0927 41.6914 27.0927 36.7656C27.0927 29.9102 31.811 25.6953 38.5588 25.6953C43.5309 25.6953 44.3934 27.7266 44.3934 29.1484C44.3427 30.5195 43.6831 31.9922 42.7191 32.5Z" fill="#FAD071"/>
<path d="M115.575 32.0937C115.271 31.9414 114.51 31.8398 113.495 31.8398C111.516 31.8398 110.248 32.9062 110.248 34.6328C110.248 36.0547 110.958 36.5625 112.429 36.5625C113.343 36.5625 114.408 36.3086 115.169 35.9531C116.032 36.207 116.59 37.1211 116.59 38.0352C116.59 40.2188 113.952 41.4883 109.994 41.4883C106.138 41.4883 103.399 39.3047 103.399 35.4961C103.399 30.1641 107.051 26.8633 112.379 26.8633C116.235 26.8633 116.945 28.4375 116.945 29.5547C116.843 30.6211 116.336 31.7383 115.575 32.0937Z" fill="#CDBCAD"/>
<path d="M18.8228 26.457C18.8228 27.3711 19.1272 27.4727 22.1713 29.0469C25.2154 30.6211 26.2301 32.0937 26.2301 34.8867C26.2301 39.6602 23.1353 43.3672 15.2206 43.3672C9.33527 43.3672 6.44336 41.9961 6.44336 39C6.44336 37.1211 7.55954 36.0039 9.43674 35.4453C10.8066 36.7148 12.9375 37.3242 14.5103 37.3242C16.1845 37.3242 17.047 36.918 17.047 36.1562C17.047 35.3437 16.3875 34.9375 13.4956 33.5156C9.99483 31.7891 8.92939 30.0625 8.92939 26.7617C8.92939 22.1406 12.4809 18.2305 19.5838 18.2305C25.7735 18.2305 28.361 20.0078 28.361 23.0039C28.361 24.8828 27.5492 26.1016 25.7735 26.6602C24.911 26.1016 22.9323 25.2383 21.2073 25.2383C19.6345 25.1367 18.8228 25.5937 18.8228 26.457Z" fill="#EB6A61"/>
<path d="M94.5706 41.1328C94.875 41.9453 95.1794 42.6055 95.4331 43.0117C95.5853 43.2148 95.6868 43.3672 95.7882 43.3672C96.0419 43.4688 97.0059 43.0117 98.1221 42.3008C99.6948 41.2852 101.42 39.9141 101.775 38.1367C101.927 37.4258 101.826 36.6133 101.42 35.8008C100.76 34.4805 99.4412 33.668 98.0713 33.5664C97.4118 33.5156 96.7015 33.6172 96.0419 33.9219C95.1794 34.3281 94.6721 34.8867 94.3169 35.5469C93.5051 37.1719 93.9618 39.3555 94.5706 41.1328ZM125.671 36.9688C127.143 37.2734 128.513 37.6289 129.933 37.5781H130.745C131.506 37.5781 131.81 37.7812 131.963 38.543C132.216 39.9141 131.607 41.082 130.288 41.6914C129.476 42.0469 128.614 42.1484 127.701 42.0977C126.28 42.0469 124.91 41.4883 123.54 41.1836C122.272 40.8789 120.953 40.7266 119.685 40.5234C119.228 40.4727 118.873 40.168 118.67 39.5586C118.365 38.543 118.518 37.6289 119.076 36.7656C119.634 35.8008 120.496 35.1914 121.257 34.5312C122.272 33.668 123.337 32.7539 124.352 31.8906L124.555 31.6875H122.881C122.221 31.7383 121.511 31.7891 120.801 31.8398C120.446 31.8906 120.243 31.7383 120.04 31.4336C119.279 30.1641 119.431 27.8789 121.663 27.5234C122.576 27.3711 123.54 27.3711 124.504 27.3711C126.534 27.4219 128.563 27.5234 130.643 27.5742C131.354 27.5742 131.607 27.7266 131.912 28.4883C132.47 30.0117 131.962 31.6367 130.593 32.8555C129.832 33.5156 129.071 34.125 128.31 34.7852C127.447 35.4453 126.585 36.1563 125.671 36.9688Z" fill="#CDBCAD"/>
</svg>
